<?xml version="1.0" encoding="UTF-8" standalone="no"?>
<!-- Created with Inkscape (http://www.inkscape.org/) -->

<svg
   width="150mm"
   height="50mm"
   viewBox="0 0 150 50"
   version="1.1"
   id="svg5"
   inkscape:version="1.1.1 (1:1.1+202109281949+c3084ef5ed)"
   sodipodi:docname="logo.svg"
   xmlns:inkscape="http://www.inkscape.org/namespaces/inkscape"
   xmlns:sodipodi="http://sodipodi.sourceforge.net/DTD/sodipodi-0.dtd"
   xmlns="http://www.w3.org/2000/svg"
   xmlns:svg="http://www.w3.org/2000/svg">
  <sodipodi:namedview
     id="namedview7"
     pagecolor="#ffffff"
     bordercolor="#eeeeee"
     borderopacity="1"
     inkscape:pageshadow="0"
     inkscape:pageopacity="0"
     inkscape:pagecheckerboard="0"
     inkscape:document-units="mm"
     showgrid="false"
     width="100mm"
     inkscape:zoom="1.28"
     inkscape:cx="252.73438"
     inkscape:cy="52.734375"
     inkscape:window-width="1858"
     inkscape:window-height="1016"
     inkscape:window-x="0"
     inkscape:window-y="0"
     inkscape:window-maximized="1"
     inkscape:current-layer="layer1">
    <inkscape:grid
       type="xygrid"
       id="grid6521" />
  </sodipodi:namedview>
  <defs
     id="defs2" />
  <g
     inkscape:label="Layer 1"
     inkscape:groupmode="layer"
     id="layer1">
    <path
       style="fill:none;stroke:#000000;stroke-width:2.8;stroke-linecap:round;stroke-linejoin:miter;stroke-miterlimit:4;stroke-dasharray:none;stroke-opacity:1"
       d="m 25.929166,7.9375 c -22.4895827,3.96875 -22.4895827,30.427083 0,34.395833"
       id="path42"
       sodipodi:nodetypes="cc" />
    <path
       style="fill:none;stroke:#000000;stroke-width:2;stroke-linecap:round;stroke-linejoin:miter;stroke-miterlimit:4;stroke-dasharray:none;stroke-opacity:1"
       d="m 40.745832,7.9375 c -13.229166,6.614583 -13.229166,27.78125 0,34.395833"
       id="path1499"
       sodipodi:nodetypes="cc" />
    <path
       style="fill:none;stroke:#000000;stroke-width:2;stroke-linecap:round;stroke-linejoin:miter;stroke-miterlimit:4;stroke-dasharray:none;stroke-opacity:1"
       d="m 42.068749,10.583333 c -11.19391,5.596955 -11.19391,23.507211 0,29.104166"
       id="path1499-3"
       sodipodi:nodetypes="cc" />
    <path
       style="fill:none;stroke:#000000;stroke-width:2.72899;stroke-linecap:round;stroke-linejoin:miter;stroke-miterlimit:4;stroke-dasharray:none;stroke-opacity:1"
       d="m 67.733331,18.520833 c 1.322916,21.166666 14.52906,21.188496 15.875,0"
       id="path8141"
       sodipodi:nodetypes="cc" />
    <path
       style="fill:none;stroke:#000000;stroke-width:2.8;stroke-linecap:round;stroke-linejoin:miter;stroke-miterlimit:4;stroke-dasharray:none;stroke-opacity:1"
       d="m 89.95833,18.520833 c 2.352469,8.399803 -2.673591,23.159186 1.587498,9.260417 3.657422,-11.487133 14.974372,-15.65627 14.873982,5.238398"
       id="path8522"
       sodipodi:nodetypes="ccc" />
    <path
       style="fill:none;stroke:#000000;stroke-width:2.68032;stroke-linecap:round;stroke-linejoin:miter;stroke-miterlimit:4;stroke-dasharray:none;stroke-opacity:1"
       d="M 125.24525,3.4481577 V 32.593807"
       id="path9131"
       sodipodi:nodetypes="cc" />
    <path
       style="fill:none;stroke:#000000;stroke-width:2.8;stroke-linecap:round;stroke-linejoin:miter;stroke-miterlimit:4;stroke-dasharray:none;stroke-opacity:1"
       d="m 125.14785,18.520833 c -21.16667,0 -14.55209,18.520834 0,14.552084"
       id="path9199"
       sodipodi:nodetypes="cc" />
    <text
       xml:space="preserve"
       style="font-style:normal;font-weight:normal;font-size:19.6354px;line-height:1.25;font-family:sans-serif;fill:#000000;fill-opacity:1;stroke:none;stroke-width:0.490887"
       x="109.28073"
       y="47.267052"
       id="text7393"
       transform="scale(1.0160978,0.98415724)"><tspan
         sodipodi:role="line"
         id="tspan7391"
         style="font-style:normal;font-variant:normal;font-weight:normal;font-stretch:normal;font-size:19.6354px;font-family:Dyuthi;-inkscape-font-specification:'Dyuthi, Normal';font-variant-ligatures:normal;font-variant-caps:normal;font-variant-numeric:normal;font-variant-east-asian:normal;stroke-width:0.490887"
         x="109.28073"
         y="47.267052">web</tspan></text>
    <path
       id="path4140"
       style="fill:#40b42e;fill-opacity:1;stroke:none;stroke-width:0;stroke-linecap:round;stroke-miterlimit:4;stroke-dasharray:none;stroke-opacity:1"
       d="m 49.566481,16.879073 a 9.4052476,9.4052476 0 0 0 -4.766117,8.178829 9.4052476,9.4052476 0 0 0 9.405109,9.405111 9.4052476,9.4052476 0 0 0 4.876189,-1.368909 c -0.0021,-0.05326 -0.0024,-0.106167 -0.0057,-0.159681 -0.0072,-0.121238 -0.01709,-0.242835 -0.02997,-0.365353 -0.01289,-0.122515 -0.02874,-0.245755 -0.04754,-0.369485 -0.01881,-0.123733 -0.04065,-0.248224 -0.06563,-0.373105 -0.02498,-0.124878 -0.05284,-0.250243 -0.08423,-0.376203 -0.03139,-0.125963 -0.06633,-0.252328 -0.104386,-0.379307 -0.03805,-0.126976 -0.07958,-0.254476 -0.12454,-0.382405 -0.04497,-0.127928 -0.09309,-0.256175 -0.145211,-0.38499 -0.05212,-0.128815 -0.107916,-0.258452 -0.167431,-0.388088 -0.05952,-0.129635 -0.12301,-0.259252 -0.190169,-0.389641 -0.06716,-0.130389 -0.138375,-0.261146 -0.213424,-0.392224 -0.07505,-0.13108 -0.154011,-0.262591 -0.237196,-0.394292 -0.08318,-0.131702 -0.170434,-0.264099 -0.261998,-0.396357 -0.09156,-0.13226 -0.187132,-0.264641 -0.287322,-0.397393 -0.10019,-0.13275 -0.205134,-0.265764 -0.314193,-0.398942 C 56.693668,27.41346 56.580355,27.280203 56.462178,27.146662 56.344005,27.013125 56.221262,26.879489 56.093725,26.745655 55.966191,26.61182 55.833991,26.477674 55.69685,26.343611 55.559709,26.209548 55.417514,26.07528 55.270519,25.941052 55.123527,25.806824 54.971823,25.672818 54.814734,25.538493 54.657649,25.404167 54.49538,25.269775 54.327946,25.135416 54.160515,25.001058 53.998246,24.866666 53.841155,24.73234 53.684067,24.598014 53.531847,24.464008 53.384852,24.329781 53.23786,24.195553 53.096181,24.061285 52.95904,23.927221 52.821895,23.793158 52.689183,23.659013 52.561646,23.525179 52.434112,23.391345 52.311369,23.257708 52.193193,23.12417 52.075019,22.990631 51.961706,22.857372 51.852647,22.724194 51.743586,22.591016 51.63916,22.458003 51.538971,22.325252 c -0.10019,-0.132751 -0.196274,-0.265649 -0.287838,-0.397909 -0.09156,-0.132259 -0.178816,-0.264139 -0.262001,-0.395841 -0.08318,-0.131702 -0.162145,-0.263213 -0.237194,-0.394291 -0.07505,-0.131079 -0.146264,-0.261835 -0.213423,-0.392224 -0.06716,-0.13039 -0.130135,-0.260006 -0.189653,-0.389641 -0.05952,-0.129635 -0.115314,-0.259275 -0.167431,-0.38809 -0.05212,-0.128815 -0.100764,-0.257059 -0.145728,-0.384989 -0.04497,-0.127929 -0.08648,-0.255427 -0.124542,-0.382406 -0.03805,-0.126978 -0.07247,-0.253343 -0.103867,-0.379305 -0.0314,-0.125961 -0.05977,-0.251325 -0.08475,-0.376204 -0.02498,-0.124879 -0.04682,-0.249373 -0.06563,-0.373104 -0.01881,-0.12373 -0.03466,-0.246969 -0.04754,-0.369486 -0.01288,-0.122517 -0.02278,-0.244115 -0.02997,-0.365353 -0.0072,-0.121237 -0.01167,-0.241842 -0.01344,-0.361735 -5.29e-4,-0.03205 5.3e-4,-0.06365 5.3e-4,-0.0956 z" />
    <path
       id="path11875"
       style="fill:#4ba9ec;fill-opacity:1;stroke:none;stroke-width:0;stroke-linecap:round;stroke-miterlimit:4;stroke-dasharray:none;stroke-opacity:1"
       d="m 49.566481,16.879073 c 9.2e-5,0.03195 -0.0011,0.06355 -5.29e-4,0.0956 0.0019,0.119893 0.0062,0.240498 0.01344,0.361735 0.0072,0.121238 0.01709,0.242836 0.02997,0.365353 0.01289,0.122517 0.02874,0.245756 0.04754,0.369486 0.01881,0.123731 0.04065,0.248225 0.06563,0.373104 0.02498,0.124879 0.05336,0.250243 0.08475,0.376204 0.03139,0.125962 0.06581,0.252327 0.103867,0.379305 0.03806,0.126979 0.07958,0.254477 0.124542,0.382406 0.04496,0.12793 0.09361,0.256174 0.145728,0.384989 0.05212,0.128815 0.107915,0.258455 0.167431,0.38809 0.05952,0.129635 0.122491,0.259251 0.189653,0.389641 0.06716,0.130389 0.138374,0.261145 0.213423,0.392224 0.07505,0.131078 0.154012,0.262589 0.237194,0.394291 0.08319,0.131702 0.170437,0.263582 0.262001,0.395841 0.09156,0.13226 0.187648,0.265158 0.287838,0.397909 0.100189,0.132751 0.204615,0.265764 0.313676,0.398942 0.109059,0.133178 0.222372,0.266437 0.340546,0.399976 0.118176,0.133538 0.240919,0.267175 0.368453,0.401009 0.127537,0.133834 0.26025,0.267979 0.397394,0.402042 0.137141,0.134064 0.27882,0.268332 0.425812,0.40256 0.146995,0.134227 0.299215,0.268233 0.456303,0.402559 0.157091,0.134326 0.31936,0.268718 0.486791,0.403076 0.167434,0.134359 0.329703,0.268751 0.486794,0.403077 0.157088,0.134325 0.308792,0.268331 0.455784,0.402559 0.146995,0.134228 0.28919,0.268496 0.426331,0.402559 0.137142,0.134063 0.269341,0.268209 0.396875,0.402044 0.127537,0.133834 0.25028,0.26747 0.368454,0.401007 0.118176,0.133541 0.231489,0.266798 0.340548,0.399976 0.109058,0.133178 0.214003,0.266192 0.314192,0.398942 0.10019,0.132752 0.195758,0.265133 0.287322,0.397393 0.09156,0.132258 0.178813,0.264655 0.261998,0.396357 0.08319,0.131701 0.162145,0.263212 0.237197,0.394292 0.07505,0.131078 0.146261,0.261835 0.213423,0.392224 0.06716,0.130389 0.130651,0.260006 0.190169,0.389641 0.05952,0.129636 0.115314,0.259273 0.167431,0.388088 0.05212,0.128815 0.100246,0.257062 0.145212,0.38499 0.04496,0.127929 0.08648,0.255429 0.124539,0.382405 0.03806,0.126979 0.07299,0.253344 0.104386,0.379307 0.03139,0.12596 0.05926,0.251325 0.08423,0.376203 0.02498,0.124881 0.04683,0.249372 0.06563,0.373105 0.01881,0.12373 0.03467,0.24697 0.04754,0.369485 0.01288,0.122518 0.02278,0.244115 0.02997,0.365353 0.0032,0.05351 0.0036,0.106423 0.0057,0.159681 a 9.4052476,9.4052476 0 0 0 4.528923,-8.036202 9.4052476,9.4052476 0 0 0 -9.405111,-9.405111 9.4052476,9.4052476 0 0 0 -4.638993,1.226282 z" />
    <path
       style="fill:none;stroke:#000000;stroke-width:2.74766;stroke-linecap:round;stroke-linejoin:miter;stroke-miterlimit:4;stroke-dasharray:none;stroke-opacity:1"
       d="m 54.504164,7.9375003 c 0,0 -10.715625,8.5989587 0,17.1979157 10.715622,8.59896 0,17.197917 0,17.197917"
       id="path6626-8" />
    <path
       style="fill:none;stroke:#000000;stroke-width:2.8;stroke-linecap:round;stroke-linejoin:miter;stroke-miterlimit:4;stroke-dasharray:none;stroke-opacity:1"
       d="m 4.7624999,25.135416 c 13.2291661,0 13.2291661,0 13.2291661,0"
       id="path11626" />
    <path
       style="fill:none;stroke:#000000;stroke-width:4.8;stroke-linecap:round;stroke-linejoin:miter;stroke-miterlimit:4;stroke-dasharray:none;stroke-opacity:1"
       d="m 16.66875,25.135417 c 3.96875,0 3.96875,0 3.96875,0"
       id="path11626-8" />
  </g>
</svg>
